# Blender v2.79 (sub 0) OBJ File: 'bath_inside.blend'
# www.blender.org
mtllib bath_inside.mtl
o Cylinder
v 0.000000 -1.000000 -1.000000
v 0.000000 0.000000 -2.000000
v 0.707107 -1.000000 -0.707107
v 1.414214 0.000000 -1.414214
v 1.000000 -1.000000 0.000000
v 2.000000 0.000000 0.000000
v 0.707107 -1.000000 0.707107
v 1.414214 0.000000 1.414214
v -0.000000 -1.000000 1.000000
v -0.000000 0.000000 2.000000
v -0.707107 -1.000000 0.707107
v -1.414214 0.000000 1.414213
v -1.000000 -1.000000 -0.000000
v -2.000000 0.000000 -0.000000
v -0.707107 -1.000000 -0.707107
v -1.414214 0.000000 -1.414213
vn -0.2811 0.6786 0.6786
vn -0.6786 0.6786 0.2811
vn -0.6786 0.6786 -0.2811
vn -0.2811 0.6786 -0.6786
vn 0.2811 0.6786 -0.6786
vn 0.6786 0.6786 -0.2811
vn 0.6786 0.6786 0.2811
vn 0.2811 0.6786 0.6786
vn 0.0000 1.0000 0.0000
usemtl None
s off
f 1//1 3//1 4//1 2//1
f 3//2 5//2 6//2 4//2
f 5//3 7//3 8//3 6//3
f 7//4 9//4 10//4 8//4
f 9//5 11//5 12//5 10//5
f 11//6 13//6 14//6 12//6
f 13//7 15//7 16//7 14//7
f 15//8 1//8 2//8 16//8
f 1//9 15//9 13//9 11//9 9//9 7//9 5//9 3//9
